{"title":"Power.Rangers.2017.WEB-DL.XviD.MP3-FGT","magnet":"magnet:?xt=urn:btih:fd3e36977f653dbe6cb6307deb833a7d091c7ae9&dn=Power.Rangers.2017.WEB-DL.XviD.MP3-FGT&tr=udp%3A%2F%2Ftracker.leechers-paradise.org%3A6969&tr=udp%3A%2F%2Fzer0day.ch%3A1337&tr=udp%3A%2F%2Fopen.demonii.com%3A1337&tr=udp%3A%2F%2Ftracker.coppersurfer.tk%3A6969&tr=udp%3A%2F%2Fexodus.desync.com%3A6969","uploader":"yerisan710","categoryP":"video","categoryS":"movies","size":"1675688121","seeders":"44","leechers":"14","description":"**********************************************\r\nPower.Rangers.2017.WEB-DL.XviD.MP3-FGT\r\n**********************************************\r\n\r\nVideo\r\nID                                       : 0\r\nFormat                                   : MPEG-4 Visual\r\nFormat profile                           : <a class=\"__cf_email__\" href=\"/cdn-cgi/l/email-protection\" data-cfemail=\"cb98a2a6bba7ae8b87fe\">[email&#xA0;protected]</a><script data-cfhash=\"f9e31\" type=\"text/javascript\">/* <![CDATA[ */!function(t,e,r,n,c,a,p){try{t=document.currentScript||function(){for(t=document.getElementsByTagName('script'),e=t.length;e--;)if(t[e].getAttribute('data-cfhash'))return t[e]}();if(t&&(c=t.previousSibling)){p=t.parentNode;if(a=c.getAttribute('data-cfemail')){for(e='',r='0x'+a.substr(0,2)|0,n=2;a.length-n;n+=2)e+='%'+('0'+('0x'+a.substr(n,2)^r).toString(16)).slice(-2);p.replaceChild(document.createTextNode(decodeURIComponent(e)),c)}p.removeChild(t)}}catch(u){}}()/* ]]> */</script>\r\nFormat settings, BVOP                    : No\r\nFormat settings, QPel                    : No\r\nFormat settings, GMC                     : No warppoints\r\nFormat settings, Matrix                  : Default (H.263)\r\nCodec ID                                 : XVID\r\nCodec ID/Hint                            : XviD\r\nDuration                                 : 2 h 3 min\r\nBit rate                                 : 1 598 kb/s\r\nWidth                                    : 720 pixels\r\nHeight                                   : 304 pixels\r\nDisplay aspect ratio                     : 2.40:1\r\nFrame rate                               : 23.976 (24000/1001) FPS\r\nColor space                              : YUV\r\nChroma subsampling                       : 4:2:0\r\nBit depth                                : 8 bits\r\nScan type                                : Progressive\r\nCompression mode                         : Lossy\r\nBits/(Pixel*Frame)                       : 0.304\r\nStream size                              : 1.38 GiB (89%)\r\nWriting library                          : Lavc57.16.101\r\n\r\n**********************************************\r\nAudio\r\nID                                       : 1\r\nFormat                                   : MPEG Audio\r\nFormat version                           : Version 1\r\nFormat profile                           : Layer 3\r\nMode                                     : Joint stereo\r\nMode extension                           : MS Stereo\r\nCodec ID                                 : 55\r\nCodec ID/Hint                            : MP3\r\nDuration                                 : 2 h 3 min\r\nBit rate mode                            : Constant\r\nBit rate                                 : 192 kb/s\r\nChannel(s)                               : 2 channels\r\nSampling rate                            : 48.0 kHz\r\nCompression mode                         : Lossy\r\nStream size                              : 170 MiB (11%)\r\nAlignment                                : Aligned on interleaves\r\nInterleave, duration                     : 24  ms (0.58 video frame)\r\nInterleave, preload duration             : 504  ms\r\nWriting library                          : LAME3.99.5\r\n\r\n********************************************** <a href=\"\nhttps://boltimg.com/image/QvKsl\" rel=\"nofollow\" target=\"_NEW\">\nhttps://boltimg.com/image/QvKsl</a>","last_updated":"2017-06-13T12:05:42.914Z","parsed":{"xt":"urn:btih:fd3e36977f653dbe6cb6307deb833a7d091c7ae9","dn":"Power.Rangers.2017.WEB-DL.XviD.MP3-FGT","tr":["udp://exodus.desync.com:6969","udp://open.demonii.com:1337","udp://tracker.coppersurfer.tk:6969","udp://tracker.leechers-paradise.org:6969","udp://zer0day.ch:1337"],"infoHash":"fd3e36977f653dbe6cb6307deb833a7d091c7ae9","infoHashBuffer":{"type":"Buffer","data":[253,62,54,151,127,101,61,190,108,182,48,125,235,131,58,125,9,28,122,233]},"name":"Power.Rangers.2017.WEB-DL.XviD.MP3-FGT","announce":["udp://exodus.desync.com:6969","udp://open.demonii.com:1337","udp://tracker.coppersurfer.tk:6969","udp://tracker.leechers-paradise.org:6969","udp://zer0day.ch:1337"],"urlList":[]}}